# xmcd CD database file generated by OrangeCD 5.2
#
# Track frame offsets:
#	150
#	21828
#	50712
#	70530
#	95744
#	121270
#	141568
#	160200
#	184166
#	202363
#	212825
#	225775
#	252180
#	265619
#
# Disc length: 3753 seconds
#
# Revision: 0
# Processed by: cddbd v1.5PL3 Copyright (c) Steve Scherf et al.
# Submitted via: OrangeCD 5.2
#
DISCID=cc0ea70e
DTITLE=Various Artist - Songs of Led Zeppelin All Blues'd Up
DYEAR=2003
DGENRE=Blues
TTITLE0=Eric Gales - Trampled Underfoot
TTITLE1=Otis Clay - Since I've Been Loving You
TTITLE2=Carl Weathersby - Good Times, Bad Times
TTITLE3=Matt Tutor (w/ Eric Gales and Derek Trucks) - Custard Pie (Revisited)
TTITLE4=Alvin "Youngblood" Hart - Heartbreaker
TTITLE5=Magic Slim w/ John Cotton - When The Levee Breaks (Pt. 2)
TTITLE6=Chris Thomas King - Hey Hey (What Can I Do)
TTITLE7=Otis Rush w/ Eric Gales - I Can't Quit You Baby
TTITLE8=Eric Gales - Custard Pie
TTITLE9=Magic Slim and Billy Branch w/ James Cotton - When The Levee Breaks (Pt. 
TTITLE9=1)
TTITLE10=Joe Louis Walker w/ James Cotton - You Need Love
TTITLE11=Clarence "Gatemouth" Brown - Rock 'N' Roll
TTITLE12=Robert Lockwood Jr. - Bring It On Home (Pt. 1)
TTITLE13=Robert Lockwood Jr. - Bring It On Home (Pt. 2)
EXTD=
EXTT0=
EXTT1=
EXTT2=
EXTT3=
EXTT4=
EXTT5=
EXTT6=
EXTT7=
EXTT8=
EXTT9=
EXTT10=
EXTT11=
EXTT12=
EXTT13=
PLAYORDER=
